<svg xmlns="http://www.w3.org/2000/svg" viewBox="0 0 474.64 354.82"><defs><style>.cls-1{fill:#808282;}.cls-2{fill:#101a1a;opacity:0.26;}.cls-3{fill:#5e6363;}.cls-4{fill:#636363;}</style></defs><title>Datový zdroj 2</title><g id="Vrstva_2" data-name="Vrstva 2"><g id="Vrstva_1-2" data-name="Vrstva 1"><g id="WiP"><g id="Artboard"><g id="Group"><path id="Rectangle" class="cls-1" d="M40.7,128.52c72.92-8.15,140.52,3.89,196.62,28.6,56.09-24.7,123.7-36.75,196.62-28.6A627.59,627.59,0,0,0,333.3,247a299.3,299.3,0,0,0-192.32.12A632.73,632.73,0,0,0,40.7,128.52Z"/><g id="Triangle"><path class="cls-2" d="M237.32,47.43c49.59,61.27,80.05,130.15,90.94,198a299.32,299.32,0,0,0-181.88,0C157.27,177.58,187.73,108.7,237.32,47.43Z"/></g><path id="Oval" class="cls-3" d="M13.26,95.87C23.43,90.62,34,91.63,36.72,97.58s-3,14.41-12.59,19.36S4.25,121.7,1,116,3.09,101.11,13.26,95.87Z"/><path id="Oval-2" data-name="Oval" class="cls-3" d="M237.32,0c12.07,0,21.59,5.76,21.27,12.29s-9.84,11.41-21.27,11.42-21-4.87-21.27-11.42S225.25,0,237.32,0Z"/><path id="Oval-3" data-name="Oval" class="cls-3" d="M461.38,95.87c10.17,5.24,15.59,14.51,12.3,20.17s-13.58,5.85-23.17.91-15.3-13.39-12.59-19.36S451.21,90.62,461.38,95.87Z"/></g></g></g><path class="cls-4" d="M113.46,354.82a38.13,38.13,0,0,1-18.52-4.5,33.15,33.15,0,0,1-13-12.43,36.31,36.31,0,0,1,0-35.79,33.5,33.5,0,0,1,13-12.43,38.13,38.13,0,0,1,18.52-4.5,38.64,38.64,0,0,1,15.19,2.9,31,31,0,0,1,11.61,8.42l-8.12,7.64a23.7,23.7,0,0,0-18.09-7.93,25.36,25.36,0,0,0-12.48,3,21.94,21.94,0,0,0-8.61,8.46,25.92,25.92,0,0,0,0,24.57,21.94,21.94,0,0,0,8.61,8.46,25.36,25.36,0,0,0,12.48,3,23.56,23.56,0,0,0,18.09-8l8.13,7.74a30.9,30.9,0,0,1-11.66,8.42,39,39,0,0,1-15.23,2.9"/><path class="cls-4" d="M196.74,353.85,182.91,334a25.81,25.81,0,0,1-2.61.1H165v19.73H152.44V286.14H180.3a37.49,37.49,0,0,1,15.33,2.9,22.3,22.3,0,0,1,10,8.32,23.28,23.28,0,0,1,3.48,12.86,23,23,0,0,1-3.72,13.16,22.15,22.15,0,0,1-10.69,8.22l15.57,22.25Zm-4.55-53.58q-4.26-3.48-12.48-3.48H165v27h14.7q8.22,0,12.48-3.53t4.26-10Q196.45,303.75,192.2,300.27Z"/><path class="cls-4" d="M322.1,286.14l-22.44,67.71H286.31l-16.73-50.1-17,50.1H239.11l-22.44-67.71h13.06l16.83,51.46,17.51-51.46h11.61l17.12,51.75,17.31-51.75Z"/><path class="cls-4" d="M392.51,286.14v67.71H382.16L344.83,308v45.85H332.35V286.14H342.7L380,332V286.14Z"/></g></g></svg>